<mxfile host="app.diagrams.net" agent="Mozilla/5.0 (X11; Linux x86_64; rv:132.0) Gecko/20100101 Firefox/132.0" version="24.8.9">
  <diagram name="Page-1" id="7cN70CdRcuYkdi8wUU5a">
    <mxGraphModel dx="988" dy="515" grid="0" gridSize="10" guides="1" tooltips="1" connect="1" arrows="1" fold="1" page="1" pageScale="1" pageWidth="850" pageHeight="1100" background="#000000" math="0" shadow="0">
      <root>
        <mxCell id="0" />
        <mxCell id="1" parent="0" />
        <mxCell id="yUb5EcZWEm8cXrAZN8VU-6" style="edgeStyle=orthogonalEdgeStyle;rounded=0;orthogonalLoop=1;jettySize=auto;html=1;entryX=0;entryY=0.5;entryDx=0;entryDy=0;dashed=1;startArrow=classic;startFill=1;strokeColor=#FFFFFF;" edge="1" parent="1" source="yUb5EcZWEm8cXrAZN8VU-1" target="yUb5EcZWEm8cXrAZN8VU-3">
          <mxGeometry relative="1" as="geometry" />
        </mxCell>
        <mxCell id="yUb5EcZWEm8cXrAZN8VU-7" value="&lt;font color=&quot;#ffffff&quot;&gt;Bluetooth&lt;/font&gt;" style="edgeLabel;html=1;align=center;verticalAlign=middle;resizable=0;points=[];labelBackgroundColor=none;" vertex="1" connectable="0" parent="yUb5EcZWEm8cXrAZN8VU-6">
          <mxGeometry x="0.2549" y="-3" relative="1" as="geometry">
            <mxPoint x="-19" y="7" as="offset" />
          </mxGeometry>
        </mxCell>
        <mxCell id="yUb5EcZWEm8cXrAZN8VU-1" value="&lt;font color=&quot;#ffffff&quot;&gt;nRF52840-DK&lt;/font&gt;" style="rounded=0;whiteSpace=wrap;html=1;fillColor=none;strokeColor=#FFFFFF;" vertex="1" parent="1">
          <mxGeometry x="110" y="560" width="120" height="60" as="geometry" />
        </mxCell>
        <mxCell id="yUb5EcZWEm8cXrAZN8VU-2" value="&lt;font color=&quot;#ffffff&quot;&gt;Raspberry Pi 4&lt;/font&gt;" style="rounded=0;whiteSpace=wrap;html=1;fillColor=none;strokeColor=#FFFFFF;" vertex="1" parent="1">
          <mxGeometry x="510" y="540" width="120" height="100" as="geometry" />
        </mxCell>
        <mxCell id="yUb5EcZWEm8cXrAZN8VU-4" style="edgeStyle=orthogonalEdgeStyle;rounded=0;orthogonalLoop=1;jettySize=auto;html=1;entryX=0;entryY=0.5;entryDx=0;entryDy=0;startArrow=classic;startFill=1;strokeColor=#FFFFFF;" edge="1" parent="1">
          <mxGeometry relative="1" as="geometry">
            <mxPoint x="450" y="589.66" as="sourcePoint" />
            <mxPoint x="510" y="589.66" as="targetPoint" />
          </mxGeometry>
        </mxCell>
        <mxCell id="yUb5EcZWEm8cXrAZN8VU-5" value="&lt;span style=&quot;&quot;&gt;&lt;font color=&quot;#ffffff&quot;&gt;USB&lt;/font&gt;&lt;/span&gt;" style="edgeLabel;html=1;align=center;verticalAlign=middle;resizable=0;points=[];labelBackgroundColor=none;" vertex="1" connectable="0" parent="yUb5EcZWEm8cXrAZN8VU-4">
          <mxGeometry x="0.3167" relative="1" as="geometry">
            <mxPoint x="-10" y="8" as="offset" />
          </mxGeometry>
        </mxCell>
        <mxCell id="yUb5EcZWEm8cXrAZN8VU-3" value="&lt;font color=&quot;#ffffff&quot;&gt;nRF52840 Dongle&lt;/font&gt;" style="rhombus;whiteSpace=wrap;html=1;fillColor=none;strokeColor=#FFFFFF;" vertex="1" parent="1">
          <mxGeometry x="370" y="550" width="80" height="80" as="geometry" />
        </mxCell>
        <mxCell id="yUb5EcZWEm8cXrAZN8VU-9" style="edgeStyle=orthogonalEdgeStyle;rounded=0;orthogonalLoop=1;jettySize=auto;html=1;startArrow=classic;startFill=1;strokeColor=#FFFFFF;" edge="1" parent="1" source="yUb5EcZWEm8cXrAZN8VU-8" target="yUb5EcZWEm8cXrAZN8VU-1">
          <mxGeometry relative="1" as="geometry" />
        </mxCell>
        <mxCell id="yUb5EcZWEm8cXrAZN8VU-10" value="I2C" style="edgeLabel;html=1;align=center;verticalAlign=middle;resizable=0;points=[];labelBackgroundColor=none;fontColor=#FFFFFF;" vertex="1" connectable="0" parent="yUb5EcZWEm8cXrAZN8VU-9">
          <mxGeometry x="0.125" y="-1" relative="1" as="geometry">
            <mxPoint x="11" y="-4" as="offset" />
          </mxGeometry>
        </mxCell>
        <mxCell id="yUb5EcZWEm8cXrAZN8VU-8" value="&lt;font color=&quot;#ffffff&quot;&gt;DHT20 Sensor&lt;/font&gt;" style="shape=document;whiteSpace=wrap;html=1;boundedLbl=1;fillColor=none;strokeColor=#FFFFFF;" vertex="1" parent="1">
          <mxGeometry x="120" y="654" width="100" height="50" as="geometry" />
        </mxCell>
        <mxCell id="yUb5EcZWEm8cXrAZN8VU-11" value="&lt;font color=&quot;#ffffff&quot;&gt;Telegram&lt;/font&gt;" style="ellipse;shape=cloud;whiteSpace=wrap;html=1;fillColor=none;strokeColor=#FFFFFF;" vertex="1" parent="1">
          <mxGeometry x="440" y="400" width="190" height="80" as="geometry" />
        </mxCell>
        <mxCell id="yUb5EcZWEm8cXrAZN8VU-12" style="edgeStyle=orthogonalEdgeStyle;rounded=0;orthogonalLoop=1;jettySize=auto;html=1;entryX=0.679;entryY=0.912;entryDx=0;entryDy=0;entryPerimeter=0;startArrow=classic;startFill=1;strokeColor=#FFFFFF;" edge="1" parent="1" source="yUb5EcZWEm8cXrAZN8VU-2" target="yUb5EcZWEm8cXrAZN8VU-11">
          <mxGeometry relative="1" as="geometry">
            <Array as="points">
              <mxPoint x="570" y="473" />
            </Array>
          </mxGeometry>
        </mxCell>
        <mxCell id="yUb5EcZWEm8cXrAZN8VU-17" value="&lt;span style=&quot;&quot;&gt;&lt;font color=&quot;#ffffff&quot;&gt;Ethernet&lt;/font&gt;&lt;/span&gt;" style="edgeLabel;html=1;align=center;verticalAlign=middle;resizable=0;points=[];labelBackgroundColor=none;" vertex="1" connectable="0" parent="yUb5EcZWEm8cXrAZN8VU-12">
          <mxGeometry x="-0.0598" y="2" relative="1" as="geometry">
            <mxPoint x="25" y="-1" as="offset" />
          </mxGeometry>
        </mxCell>
        <mxCell id="yUb5EcZWEm8cXrAZN8VU-15" value="" style="endArrow=none;dashed=1;html=1;dashPattern=1 3;strokeWidth=2;rounded=0;entryX=0.13;entryY=0.77;entryDx=0;entryDy=0;entryPerimeter=0;exitX=0.5;exitY=0;exitDx=0;exitDy=0;strokeColor=#FFFFFF;" edge="1" parent="1" source="yUb5EcZWEm8cXrAZN8VU-1" target="yUb5EcZWEm8cXrAZN8VU-11">
          <mxGeometry width="50" height="50" relative="1" as="geometry">
            <mxPoint x="370" y="390" as="sourcePoint" />
            <mxPoint x="420" y="340" as="targetPoint" />
          </mxGeometry>
        </mxCell>
        <mxCell id="yUb5EcZWEm8cXrAZN8VU-16" value="Telegram API" style="edgeLabel;html=1;align=center;verticalAlign=middle;resizable=0;points=[];fontColor=#FFFFFF;labelBackgroundColor=none;" vertex="1" connectable="0" parent="yUb5EcZWEm8cXrAZN8VU-15">
          <mxGeometry x="0.1199" y="-2" relative="1" as="geometry">
            <mxPoint x="-30" y="-13" as="offset" />
          </mxGeometry>
        </mxCell>
        <mxCell id="yUb5EcZWEm8cXrAZN8VU-18" value="" style="rounded=0;whiteSpace=wrap;html=1;fillColor=none;strokeColor=#FFFFFF;" vertex="1" parent="1">
          <mxGeometry x="370" y="540" width="260" height="100" as="geometry" />
        </mxCell>
        <mxCell id="yUb5EcZWEm8cXrAZN8VU-19" value="&lt;font color=&quot;#ffffff&quot;&gt;Border Router&lt;/font&gt;" style="text;html=1;align=center;verticalAlign=middle;resizable=0;points=[];autosize=1;strokeColor=none;fillColor=none;" vertex="1" parent="1">
          <mxGeometry x="454" y="642" width="93" height="26" as="geometry" />
        </mxCell>
      </root>
    </mxGraphModel>
  </diagram>
</mxfile>
